<svg xmlns="http://www.w3.org/2000/svg" version="1.1" xmlns:xlink="http://www.w3.org/1999/xlink" xmlns:svgjs="http://svgjs.com/svgjs" width="1024" height="1024"><svg xml:space="preserve" viewBox="1 1 1024 1024" xmlns="http://www.w3.org/2000/svg"><path fill="#174280" d="M1 871V155A154 154 135 0 1 155 1h716a154 154 45 0 1 154 154v716a154 154 135 0 1-154 154H155A154 154 45 0 1 1 871Z"></path><path fill="#f9fbfb" d="m986 735-79 1c-3 0-4-2-5-4L793 492l-86 193c-1 3-1 6 1 10l18 41h-78c-4 0-6-1-7-5L524 473l-89 199-41-85c-2-5-2-9 0-13l128-283 141 304 127-287c1-3 1-3 2 0z"></path><path fill="#f9fbfc" d="M428 736h-79c-3 0-4-1-5-4l-26-57c-1-3-3-5-7-5H161c-4 0-6 1-8 5l-24 56c-2 3-4 5-8 5H44l190-430m-46 289h94l-48-105Z"></path></svg><style>@media (prefers-color-scheme: light) { :root { filter: none; } }
@media (prefers-color-scheme: dark) { :root { filter: contrast(1) brightness(1.2); } }
</style></svg>