<?xml version="1.0" standalone="no"?>
<!DOCTYPE svg PUBLIC "-//W3C//DTD SVG 20010904//EN"
 "http://www.w3.org/TR/2001/REC-SVG-20010904/DTD/svg10.dtd">
<svg version="1.0" xmlns="http://www.w3.org/2000/svg"
 width="700.000000pt" height="700.000000pt" viewBox="0 0 700.000000 700.000000"
 preserveAspectRatio="xMidYMid meet">
<metadata>
Created by potrace 1.14, written by Peter Selinger 2001-2017
</metadata>
<g transform="translate(0.000000,700.000000) scale(0.100000,-0.100000)"
fill="#000000" stroke="none">
<path d="M3466 4953 c-49 -109 -104 -229 -122 -268 -18 -38 -65 -142 -104
-230 -40 -88 -82 -182 -95 -210 -12 -27 -66 -147 -120 -265 -53 -118 -105
-233 -115 -255 -230 -508 -313 -695 -317 -720 -4 -24 10 -62 60 -165 36 -74
106 -220 156 -324 50 -104 93 -187 95 -185 2 2 72 157 156 344 83 187 160 358
170 380 31 69 281 627 307 688 l26 58 67 -148 c37 -81 79 -175 94 -208 16 -33
57 -125 93 -204 61 -137 92 -204 150 -331 14 -30 56 -122 93 -205 61 -134 187
-414 242 -535 107 -235 141 -306 148 -314 9 -9 597 -12 606 -4 2 3 -27 76 -66
163 -38 86 -70 165 -70 174 0 14 198 473 304 706 13 28 92 209 177 402 85 194
156 353 159 353 5 0 35 -65 198 -425 30 -66 67 -147 82 -180 15 -33 38 -82 50
-110 12 -27 38 -83 56 -123 19 -41 34 -75 34 -77 0 -2 19 -43 41 -92 23 -48
109 -236 191 -418 82 -181 156 -340 164 -353 l15 -24 305 3 c167 2 304 4 304
6 0 2 -93 206 -145 318 -31 68 -56 123 -97 215 -11 25 -36 79 -55 120 -19 41
-54 118 -78 170 -24 52 -64 139 -89 193 -25 55 -46 100 -46 102 0 1 -22 49
-49 106 -26 57 -63 138 -81 179 -18 41 -53 118 -77 170 -25 52 -64 138 -88
190 -23 52 -57 127 -75 165 -18 39 -124 273 -237 520 -113 248 -222 486 -242
530 -21 44 -50 108 -66 143 l-29 64 -24 -54 c-13 -29 -30 -65 -38 -80 -9 -16
-12 -28 -8 -28 3 0 2 -6 -4 -12 -5 -7 -53 -112 -107 -233 -425 -963 -707
-1598 -744 -1679 l-27 -59 -64 139 c-35 77 -79 173 -98 214 -111 243 -390 848
-424 920 -22 47 -59 128 -83 180 -23 52 -59 131 -80 175 -20 44 -51 109 -67
145 -17 36 -65 142 -108 236 -43 94 -87 188 -97 208 l-19 36 -88 -197z"/>
<path d="M1375 4963 c-16 -38 -41 -95 -56 -128 -15 -33 -70 -157 -122 -275
-242 -548 -371 -839 -393 -888 -13 -29 -24 -55 -24 -57 0 -3 -15 -37 -34 -77
-18 -40 -65 -145 -104 -233 -38 -88 -141 -320 -227 -515 -335 -758 -404 -915
-407 -929 -3 -11 48 -13 296 -13 269 0 301 2 312 17 7 9 42 87 79 173 90 211
121 276 137 289 19 16 1162 15 1182 -1 7 -6 35 -58 61 -116 26 -58 60 -132 75
-165 15 -33 42 -90 59 -128 26 -56 36 -67 56 -68 33 -1 539 -1 564 0 19 1 18
5 -8 63 -59 130 -394 875 -418 928 -13 30 -38 84 -55 120 -17 36 -38 81 -46
100 -8 19 -65 148 -127 285 -62 138 -125 277 -140 310 -15 33 -37 83 -50 110
-13 28 -53 118 -90 200 -36 83 -75 168 -85 190 -10 22 -66 146 -125 275 -58
129 -143 317 -188 417 -45 101 -85 183 -88 183 -3 0 -19 -30 -34 -67z m145
-1518 c51 -115 106 -239 123 -275 63 -140 117 -263 117 -269 0 -3 -152 -6
-337 -6 -235 0 -338 3 -338 11 0 21 329 764 335 756 4 -4 48 -101 100 -217z"/>
</g>
</svg>
