<svg width="0" height="0" class="hidden">
  <symbol fill="none" xmlns="http://www.w3.org/2000/svg" stroke="#fff" viewBox="0 0 24 24"
    id="cloud-icon">
    <path
      d="M3 13.65C3 16.603 5.418 19 8.4 19h8.1c2.485 0 4.5-2.016 4.5-4.503 0-1.847-1.11-3.552-2.7-4.247C18.132 7.323 15.684 5 12.69 5 10.35 5 8.346 6.486 7.5 8.5 4.8 8.938 3 11.2 3 13.65Z"
      stroke-width="2" stroke-linecap="round" stroke-linejoin="round"></path>
  </symbol>
  <symbol fill="none" xmlns="http://www.w3.org/2000/svg" viewBox="0 0 24 24" id="database-icon">
    <path fill-rule="evenodd" clip-rule="evenodd"
      d="M3.25 6c0-1.542 1.23-2.736 2.758-3.5C7.58 1.716 9.7 1.25 12 1.25s4.42.465 5.992 1.25c1.528.764 2.758 1.958 2.758 3.5v12c0 1.542-1.23 2.735-2.758 3.5-1.572.785-3.692 1.25-5.992 1.25s-4.42-.465-5.992-1.25C4.48 20.734 3.25 19.541 3.25 18V6Zm1.5 0c0-.667.56-1.474 1.929-2.158C8.002 3.181 9.882 2.75 12 2.75s3.998.43 5.321 1.092C18.69 4.526 19.25 5.332 19.25 6c0 .667-.56 1.474-1.929 2.158C15.998 8.819 14.118 9.25 12 9.25s-3.998-.43-5.321-1.092C5.31 7.474 4.75 6.668 4.75 6Zm0 12c0 .667.56 1.474 1.929 2.158 1.323.661 3.203 1.092 5.321 1.092s3.998-.43 5.321-1.092c1.368-.684 1.929-1.49 1.929-2.158v-3.293c-.377.3-.804.565-1.258.792C16.42 16.285 14.3 16.75 12 16.75s-4.42-.465-5.992-1.25a7.146 7.146 0 0 1-1.258-.793V18Zm14.5-9.293V12c0 .667-.56 1.474-1.929 2.158-1.323.661-3.203 1.092-5.321 1.092s-3.998-.43-5.321-1.092C5.31 13.474 4.75 12.668 4.75 12V8.707c.377.3.804.565 1.258.792C7.58 10.285 9.7 10.75 12 10.75s4.42-.465 5.992-1.25a7.144 7.144 0 0 0 1.258-.793Z"
      fill="#fff"></path>
  </symbol>
  <symbol xmlns="http://www.w3.org/2000/svg" viewBox="0 0 48 48" id="react-icon">
    <g>
      <path fill="none" d="M0 0h48v48H0z"></path>
      <g fill="#fff">
        <path
          d="M45.9 24c0-2.8-3-5.4-8-7.2l-.9-.3v-.4c1.1-5.5.3-9.6-2.2-11.1s-6.2-.1-10.2 3.4L24 9l-.2-.2h-.2C19.5 5 15.5 3.7 13 5.1s-3.2 5.3-2.2 10.4a4.4 4.4 0 0 1 .2 1l-1.1.4C5 18.6 2.1 21.2 2.1 24s3.2 5.6 8.2 7.4l.7.2a3.6 3.6 0 0 0-.2 1.1c-1 5-.1 8.8 2.2 10.2s6.5.1 10.5-3.4l.6-.5.8.8c2.8 2.4 5.6 3.7 7.8 3.7a4 4 0 0 0 2.2-.6c2.5-1.4 3.4-5.5 2.3-10.7V32a4.3 4.3 0 0 1-.1-.5h.3c5.3-1.9 8.5-4.6 8.5-7.5ZM43 24c0 1.2-2.2 3.3-6.5 4.7h-.2a36.7 36.7 0 0 0-1.9-4.7c.7-1.6 1.3-3.2 1.8-4.7l.8.2c4 1.4 6 3.3 6 4.5ZM26.8 37.6 26 37a43.1 43.1 0 0 0 3.2-4l5.1-.8c.1.2.1.4.2.5a17.5 17.5 0 0 1 .2 5.5 4.1 4.1 0 0 1-1.2 2.3c-1 .6-3.7-.2-6.7-2.9Zm-1.3-4.4L24.1 35l-1.6-1.8Zm-13.7-14a31.9 31.9 0 0 0 1.9 4.8 33 33 0 0 0-1.9 4.9l-.6-.2a14.4 14.4 0 0 1-4.8-2.6A3.1 3.1 0 0 1 5 24c0-1.2 2-3.1 5.8-4.4Zm10.7-4.4 1.5-1.7 1.5 1.7h-3Zm11-7.3c1.1.6 1.7 3.6.8 8a.4.4 0 0 1-.1.3l-5-.8a43.1 43.1 0 0 0-3.2-4l.6-.5c3.2-2.8 5.8-3.6 6.9-3ZM16.8 18.1l-.8 1.3-.7 1.3c-.3-.7-.5-1.4-.8-2.2Zm-2.3 11.4c.3-.7.5-1.4.8-2.2l.7 1.3.8 1.3ZM31.2 24a33.7 33.7 0 0 1-1.7 3.2c-.6 1.1-1.3 2.1-1.9 3.1h-7.2c-.7-1.1-1.4-2.1-1.9-3.1a31 31 0 0 1-1.7-3.2 24 24 0 0 1 1.7-3.2 30.5 30.5 0 0 1 1.9-3 43.3 43.3 0 0 1 7.2 0c.7 1 1.3 2 1.9 3a24 24 0 0 1 1.7 3.2Zm.8-4.6-.8-1.3 2.3.5a18 18 0 0 1-.8 2.1Zm-.8 10.5.8-1.3.7-1.4.9 2.3Zm-9.3-19h.1l-3.2 4-5 .8c-.1-.3-.1-.5-.2-.8-.8-4.1-.2-6.9.8-7.4a1.3 1.3 0 0 1 .9-.2c1.4 0 3.8 1 6.5 3.4Zm-8.3 22.3a2.9 2.9 0 0 1 .2-.9l5.1.7a33 33 0 0 0 3.2 4l-.2.2-.2.2a14.3 14.3 0 0 1-4.7 2.9 3.2 3.2 0 0 1-2.5.2c-1.1-.6-1.7-3.3-.9-7.3Z"></path>
        <path d="M24 19.6a4.4 4.4 0 1 0 4.3 4.4 4.4 4.4 0 0 0-4.3-4.4Z"></path>
      </g>
    </g>
  </symbol>
  <symbol xmlns="http://www.w3.org/2000/svg" fill="none" stroke="currentColor" stroke-width="2"
    stroke-linecap="round" stroke-linejoin="round" viewBox="0 0 24 24" id="close-icon">
    <line x1="18" y1="6" x2="6" y2="18"></line>
    <line x1="6" y1="6" x2="18" y2="18"></line>
  </symbol>
  <symbol xmlns="http://www.w3.org/2000/svg" fill="none" stroke="currentColor" stroke-width="2"
    stroke-linecap="round" stroke-linejoin="round" viewBox="0 0 24 24" id="menu-icon">
    <path d="M3 6h18M3 12h18M3 18h18"></path>
  </symbol>
  <symbol xmlns="http://www.w3.org/2000/svg" fill="#fff" viewBox="0 0 20 20" id="github-logo">
    <path
      d="M10 0c5.523 0 10 4.59 10 10.253 0 4.529-2.862 8.371-6.833 9.728-.507.101-.687-.219-.687-.492 0-.338.012-1.442.012-2.814 0-.956-.32-1.58-.679-1.898 2.227-.254 4.567-1.121 4.567-5.059 0-1.12-.388-2.034-1.03-2.752.104-.259.447-1.302-.098-2.714 0 0-.838-.275-2.747 1.051A9.396 9.396 0 0 0 10 4.958a9.375 9.375 0 0 0-2.503.345C5.586 3.977 4.746 4.252 4.746 4.252c-.543 1.412-.2 2.455-.097 2.714-.639.718-1.03 1.632-1.03 2.752 0 3.928 2.335 4.808 4.556 5.067-.286.256-.545.708-.635 1.371-.57.262-2.018.715-2.91-.852 0 0-.529-.985-1.533-1.057 0 0-.975-.013-.068.623 0 0 .655.315 1.11 1.5 0 0 .587 1.83 3.369 1.21.005.857.014 1.665.014 1.909 0 .271-.184.588-.683.493C2.865 18.627 0 14.783 0 10.253 0 4.59 4.478 0 10 0"
      fill="#fff" fill-rule="evenodd"></path>
  </symbol>
  <symbol xmlns="http://www.w3.org/2000/svg" xml:space="preserve" viewBox="0 0 382 382"
    id="linkedIn-logo">
    <path d="M347.445 0H34.555C15.471 0 0 15.471 0 34.555v312.889C0 366.529 15.471 382 34.555 382h312.889C366.529 382 382 366.529 382 347.444V34.555C382 15.471 366.529 0 347.445 0zM118.207 329.844c0 5.554-4.502 10.056-10.056 10.056H65.345c-5.554 0-10.056-4.502-10.056-10.056V150.403c0-5.554 4.502-10.056 10.056-10.056h42.806c5.554 0 10.056 4.502 10.056 10.056v179.441zM86.748 123.432c-22.459 0-40.666-18.207-40.666-40.666S64.289 42.1 86.748 42.1s40.666 18.207 40.666 40.666-18.206 40.666-40.666 40.666zM341.91 330.654a9.247 9.247 0 0 1-9.246 9.246H286.73a9.247 9.247 0 0 1-9.246-9.246v-84.168c0-12.556 3.683-55.021-32.813-55.021-28.309 0-34.051 29.066-35.204 42.11v97.079a9.246 9.246 0 0 1-9.246 9.246h-44.426a9.247 9.247 0 0 1-9.246-9.246V149.593a9.247 9.247 0 0 1 9.246-9.246h44.426a9.247 9.247 0 0 1 9.246 9.246v15.655c10.497-15.753 26.097-27.912 59.312-27.912 73.552 0 73.131 68.716 73.131 106.472v86.846z"></path>
  </symbol>
  <symbol xmlns="http://www.w3.org/2000/svg" fill="none" stroke="currentColor" stroke-width="2"
    stroke-linecap="round" stroke-linejoin="round" viewBox="0 0 24 24" id="down-arrow-icon">
    <path d="M12 5v14m-7-7 7 7 7-7"></path>
  </symbol>
  <symbol xmlns="http://www.w3.org/2000/svg" fill="#fff" viewBox="0 0 16 16" id="server-icon">
    <path fill-rule="evenodd" clip-rule="evenodd"
      d="M8.48 4h4l.5.5v2.03h.52l.5.5V8l-.5.5h-.52v3l-.5.5H9.36l-2.5 2.76L6 14.4V12H3.5l-.5-.64V8.5h-.5L2 8v-.97l.5-.5H3V4.36L3.53 4h4V2.86A1 1 0 0 1 7 2a1 1 0 0 1 2 0 1 1 0 0 1-.52.83V4zM12 8V5H4v5.86l2.5.14H7v2.19l1.8-2.04.35-.15H12V8zm-2.12.51a2.71 2.71 0 0 1-1.37.74v-.01a2.71 2.71 0 0 1-2.42-.74l-.7.71c.34.34.745.608 1.19.79.45.188.932.286 1.42.29a3.7 3.7 0 0 0 2.58-1.07l-.7-.71zM6.49 6.5h-1v1h1v-1zm3 0h1v1h-1v-1z"></path>
  </symbol>
  <symbol xmlns="http://www.w3.org/2000/svg" fill="#fff" viewBox="0 0 20 20" id="python-icon">
    <path
      d="M12.744 18.458a.874.874 0 0 1-.872-.877.873.873 0 1 1 1.744 0c0 .485-.39.877-.872.877M10.072 20c5.078 0 4.761-2.214 4.761-2.214l-.006-2.292H9.982v-.689h6.769S20 15.175 20 10.026c0-5.15-2.835-4.968-2.835-4.968h-1.693v2.39s.091 2.85-2.79 2.85H7.876s-2.7-.043-2.7 2.624v4.41S4.766 20 10.072 20M7.257 1.542c.482 0 .871.392.871.877a.872.872 0 1 1-1.743 0c0-.485.39-.877.872-.877M9.928 0c-5.077 0-4.76 2.214-4.76 2.214l.006 2.292h4.845v.689h-6.77S0 4.825 0 9.974c0 5.15 2.836 4.968 2.836 4.968h1.692v-2.39s-.091-2.85 2.791-2.85h4.805s2.7.043 2.7-2.624v-4.41S15.234 0 9.928 0"
      fill="#fff" fill-rule="evenodd"></path>
  </symbol>
  <symbol fill="none" xmlns="http://www.w3.org/2000/svg" viewBox="0 0 24 24" id="code-icon">
    <path d="m7 8-4 3.692L7 16m10-8 4 3.692L17 16M14 4l-4 16" stroke="#fff" stroke-width="2"
      stroke-linecap="round" stroke-linejoin="round"></path>
  </symbol>
  <symbol xmlns="http://www.w3.org/2000/svg" fill="#fff" viewBox="0 0 512 512" id="sitemap-icon">
    <path fill="var(--ci-primary-color, #ffffff)"
      d="M472 328h-24v-64a24.027 24.027 0 0 0-24-24H272v-64h32a24.028 24.028 0 0 0 24-24V80a24.028 24.028 0 0 0-24-24h-96a24.028 24.028 0 0 0-24 24v72a24.028 24.028 0 0 0 24 24h32v64H88a24.027 24.027 0 0 0-24 24v64H40a24.028 24.028 0 0 0-24 24v72a24.028 24.028 0 0 0 24 24h80a24.028 24.028 0 0 0 24-24v-72a24.028 24.028 0 0 0-24-24H96v-56h144v56h-24a24.028 24.028 0 0 0-24 24v72a24.028 24.028 0 0 0 24 24h80a24.028 24.028 0 0 0 24-24v-72a24.028 24.028 0 0 0-24-24h-24v-56h144v56h-24a24.028 24.028 0 0 0-24 24v72a24.028 24.028 0 0 0 24 24h80a24.028 24.028 0 0 0 24-24v-72a24.028 24.028 0 0 0-24-24ZM216 88h80v56h-80ZM112 360v56H48v-56Zm176 0v56h-64v-56Zm176 56h-64v-56h64Z"></path>
  </symbol>
  <symbol fill="#fff" xmlns="http://www.w3.org/2000/svg" viewBox="0 0 24 24" id="git-branch-icon">
    <path
      d="M23.546 10.93 13.067.452a1.55 1.55 0 0 0-2.188 0L8.708 2.627l2.76 2.76a1.838 1.838 0 0 1 2.327 2.341l2.658 2.66a1.838 1.838 0 0 1 1.9 3.039 1.837 1.837 0 0 1-2.6 0 1.846 1.846 0 0 1-.404-1.996L12.86 8.955v6.525c.176.086.342.203.488.348a1.848 1.848 0 0 1 0 2.6 1.844 1.844 0 0 1-2.609 0 1.834 1.834 0 0 1 0-2.598c.182-.18.387-.316.605-.406V8.835a1.834 1.834 0 0 1-.996-2.41L7.636 3.7.45 10.881c-.6.605-.6 1.584 0 2.189l10.48 10.477a1.545 1.545 0 0 0 2.186 0l10.43-10.43a1.544 1.544 0 0 0 0-2.187"></path>
  </symbol>
</svg>