<svg xmlns="http://www.w3.org/2000/svg" width="150" height="150"><path style="stroke:none;fill-rule:nonzero;fill:#0a66c2;fill-opacity:1" d="M127.805 127.813h-22.223V92.995c0-8.3-.152-18.988-11.562-18.988-11.575 0-13.348 9.043-13.348 18.379v35.422H58.449V56.234h21.336v9.782h.285a23.389 23.389 0 0 1 21.055-11.563c22.523 0 26.68 14.82 26.68 34.094ZM33.37 46.448c-7.125 0-12.902-5.773-12.902-12.898s5.773-12.899 12.898-12.903c7.125 0 12.899 5.778 12.899 12.899 0 7.125-5.774 12.898-12.895 12.902m11.11 81.36H22.233V56.234h22.25ZM138.874.016H11.066A10.93 10.93 0 0 0 3.29 3.133 10.909 10.909 0 0 0 0 10.84v128.324c.07 6.043 5.023 10.887 11.07 10.824h127.805c6.059.082 11.04-4.765 11.121-10.824V10.816C149.91 4.758 144.93-.082 138.875.004"/></svg>